<svg width="118" height="106" viewBox="0 0 118 106" fill="none" xmlns="http://www.w3.org/2000/svg">
<g filter="url(#filter0_dd_460_29)">
<path d="M47.6588 92.3824V85.4609H64.6963V92.3824H47.6588Z" fill="black"/>
<path d="M67.0553 66.0541C66.0128 54.1406 65.3348 46.2222 64.9755 31.1543L56.1775 36.2429L47.7252 31.1543C47.3659 39.1314 48.3643 52.5122 46.6471 66.0541C45.5183 74.9561 43.7721 84.7782 42.3345 88.6559H70.5529C70.5529 88.6559 67.9297 76.0465 67.0553 66.0541Z" fill="black"/>
<path d="M40.4707 57.5086V28.7578C37.8086 28.7578 27.1601 34.3483 19.44 41.8022C13.3171 48.4575 7.99289 54.5803 5.59698 66.2936C13.3171 66.2936 25.0304 71.3516 33.283 75.3448C39.885 78.5393 51.4741 89.454 56.4433 94.512C62.3 87.3243 69.7539 81.7339 79.3375 75.3448C87.0044 70.2335 100.812 66.826 106.757 65.7612C103.563 54.8465 99.5696 49.7885 92.9143 42.0684C87.5901 35.8923 77.6515 30.3551 72.9484 28.7578L72.6822 57.5086C68.6891 59.6383 64.9621 63.6315 63.0986 67.0922C61.6078 69.8608 60.1703 76.4096 59.6379 79.338L57.5082 80.9352V58.3073H54.8461V80.9352L52.7164 79.338C52.184 76.9421 50.7464 71.1387 49.2556 67.0922C47.7649 63.0458 42.6891 59.0172 40.4707 57.5086Z" fill="#B60E19"/>
<path d="M72.706 28.6852L88.4284 20.5059C88.4284 20.5059 86.5258 41.3265 90.7246 55.1937C95.5857 66.0035 97.714 72.138 109.42 77.5057C108.09 79.8062 105.695 84.9183 100.641 85.9407C95.5857 86.9631 92.3932 85.1739 88.4284 83.8958L81.9943 81.5954L72.6828 92.3829L72.706 28.6852Z" fill="black"/>
<path d="M40.7139 28.6852L24.9916 20.5059C24.9916 20.5059 26.8941 41.3265 22.6953 55.1937C17.8342 66.0035 15.7059 72.138 4 77.5057C5.33021 79.8062 7.7246 84.9183 12.7794 85.9407C17.8342 86.9631 21.0267 85.1739 24.9916 83.8958L31.4257 81.5954L40.7372 92.3829L40.7139 28.6852Z" fill="black"/>
<rect x="25.3511" y="43.6064" width="3.28241" height="3.28241" fill="#FFCC00"/>
<rect x="73.7707" y="47.8652" width="3.28241" height="3.28241" fill="#FFCC00"/>
<rect x="36.1752" y="47.8652" width="3.28241" height="3.28241" fill="#FFCC00"/>
<rect x="84.5948" y="43.6074" width="3.28241" height="3.28241" fill="#FFCC00"/>
<path d="M54.58 51.918L56.1773 52.4504L57.7745 51.918V55.1125L56.1773 55.6449L54.58 55.1125V51.918Z" fill="#FFCC00"/>
<circle cx="32.4046" cy="47.3775" r="1.64121" fill="#FFCC00"/>
<circle cx="80.8237" cy="47.3785" r="1.64121" fill="#FFCC00"/>
<circle cx="50.7497" cy="51.6373" r="1.64121" fill="#FFCC00"/>
<circle cx="61.5454" cy="51.6373" r="1.64121" fill="#FFCC00"/>
<path d="M65.7013 47.1264L65.3885 40.7373L56.1775 43.9318L47.6588 40.7373C47.6588 40.7373 47.6628 45.3516 47.6628 47.1264L56.1775 50.0547L65.7013 47.1264Z" fill="#FFCC00"/>
<path d="M24.7643 39.4055C25.4439 39.4055 25.2967 32.2178 25.2967 32.2178L40.737 38.8731V45.7945C40.737 45.7945 24.0847 39.4055 24.7643 39.4055Z" fill="#FFCC00"/>
<path d="M88.6551 39.4055C87.9754 39.4055 88.1227 32.2178 88.1227 32.2178L72.6824 38.8731V45.7945C72.6824 45.7945 89.3347 39.4055 88.6551 39.4055Z" fill="#FFCC00"/>
<path d="M56.2905 33.2832L24.7643 17.6336L56.0163 4L89.1874 17.6336L56.2905 33.2832Z" fill="black"/>
<path d="M56.3927 31.1539L29.5563 17.496L56.1593 5.59766L84.3959 17.496L56.3927 31.1539Z" stroke="#DCDCDC"/>
</g>
<path d="M31.6567 97.7158V104H30.4922V97.7158H31.6567ZM36.0776 97.7158L33.397 100.647L36.3589 104H34.7461L32.3159 101.064V100.309L34.6538 97.7158H36.0776ZM37.4487 104H36.2534L38.9209 97.7158H40.1733L42.8979 104H41.6455L40.9292 102.286H38.8418L39.2417 101.275H40.5073L39.5186 98.9155L37.4487 104ZM43.667 104V97.7158H46.6113C47.8066 97.7158 48.4043 98.2036 48.4043 99.1792C48.4043 99.894 48.0146 100.405 47.2354 100.713C48.0674 100.868 48.4834 101.344 48.4834 102.141C48.4834 103.38 47.8286 104 46.519 104H43.667ZM46.4707 102.989C46.9863 102.989 47.2441 102.726 47.2441 102.198C47.2441 101.545 46.8589 101.218 46.0884 101.218H45.7368V100.467C46.7036 100.306 47.187 99.9014 47.187 99.2539C47.187 98.9023 46.9702 98.7266 46.5366 98.7266H44.8315V102.989H46.4707ZM50.1226 104H48.9272L51.5947 97.7158H52.8472L55.5718 104H54.3193L53.603 102.286H51.5156L51.9155 101.275H53.1812L52.1924 98.9155L50.1226 104ZM56.3408 104V97.7158H57.5054V100.309H60.6035V97.7158H61.7681V104H60.6035V101.319H57.5054V104H56.3408Z" fill="#B60E19"/>
<path d="M64.8486 104V103.121C66.9434 101.665 67.9907 100.464 67.9907 99.5176C67.9907 98.9609 67.6099 98.6826 66.8481 98.6826C66.2036 98.6826 65.5957 98.8438 65.0244 99.166V98.1113C65.5957 97.8184 66.2036 97.6719 66.8481 97.6719C68.3862 97.6719 69.1553 98.2871 69.1553 99.5176C69.1553 100.602 68.3159 101.759 66.6372 102.989H69.1553V104H64.8486ZM71.1987 100.84C71.1987 102.302 71.7305 103.033 72.7939 103.033C73.8252 103.033 74.3408 102.302 74.3408 100.84C74.3408 99.4019 73.8252 98.6826 72.7939 98.6826C71.7305 98.6826 71.1987 99.4019 71.1987 100.84ZM69.9902 100.867C69.9902 98.7368 70.9248 97.6719 72.7939 97.6719C74.6309 97.6719 75.5493 98.7368 75.5493 100.867C75.5493 102.985 74.6309 104.044 72.7939 104.044C70.9248 104.044 69.9902 102.985 69.9902 100.867ZM76.3887 104V103.121C78.4834 101.665 79.5308 100.464 79.5308 99.5176C79.5308 98.9609 79.1499 98.6826 78.3882 98.6826C77.7437 98.6826 77.1357 98.8438 76.5645 99.166V98.1113C77.1357 97.8184 77.7437 97.6719 78.3882 97.6719C79.9263 97.6719 80.6953 98.2871 80.6953 99.5176C80.6953 100.602 79.856 101.759 78.1772 102.989H80.6953V104H76.3887ZM82.2334 104V98.6782H81.5742V98.1992L83.3979 97.584V104H82.2334Z" fill="black"/>
<defs>
<filter id="filter0_dd_460_29" x="0" y="0" width="117.42" height="102.512" filterUnits="userSpaceOnUse" color-interpolation-filters="sRGB">
<feFlood flood-opacity="0" result="BackgroundImageFix"/>
<feColorMatrix in="SourceAlpha" type="matrix" values="0 0 0 0 0 0 0 0 0 0 0 0 0 0 0 0 0 0 127 0" result="hardAlpha"/>
<feOffset dy="4"/>
<feGaussianBlur stdDeviation="2"/>
<feColorMatrix type="matrix" values="0 0 0 0 0 0 0 0 0 0 0 0 0 0 0 0 0 0 0.2 0"/>
<feBlend mode="normal" in2="BackgroundImageFix" result="effect1_dropShadow_460_29"/>
<feColorMatrix in="SourceAlpha" type="matrix" values="0 0 0 0 0 0 0 0 0 0 0 0 0 0 0 0 0 0 127 0" result="hardAlpha"/>
<feOffset dx="4"/>
<feGaussianBlur stdDeviation="2"/>
<feColorMatrix type="matrix" values="0 0 0 0 0 0 0 0 0 0 0 0 0 0 0 0 0 0 0.2 0"/>
<feBlend mode="normal" in2="effect1_dropShadow_460_29" result="effect2_dropShadow_460_29"/>
<feBlend mode="normal" in="SourceGraphic" in2="effect2_dropShadow_460_29" result="shape"/>
</filter>
</defs>
</svg>
