<svg width="127" height="132" viewBox="0 0 127 132" fill="none" xmlns="http://www.w3.org/2000/svg">
<path d="M29.2522 23.5723C42.5176 25.0214 52.4666 34.2397 55.783 38.6677L52.7681 92.7091C46.0148 85.9464 36.8899 84.457 33.1715 84.5576L29.2522 23.5723Z" fill="#B60E19"/>
<path d="M97.0866 23.5723C85.0271 24.5384 74.5756 34.0384 70.8573 38.6677L73.8722 92.7091C80.8666 85.9464 90.0519 84.457 93.7702 84.5576C93.0467 82.1424 95.6796 42.8944 97.0866 23.5723Z" fill="#B60E19"/>
<path d="M25.0314 26.2894L18.0972 23.5723L23.524 94.2187C30.7596 91.0788 43.0201 92.9104 48.2458 94.2187C42.2161 88.422 33.071 88.7843 29.2522 89.6901L25.0314 26.2894Z" fill="#B60E19"/>
<path d="M15.0824 37.1581L9.35413 35.6486L15.0824 109.918C19.665 103.397 31.8651 97.7409 37.3923 95.7282C32.3274 95.0036 24.0265 97.6403 20.5091 99.0492L15.0824 37.1581Z" fill="#B60E19"/>
<path d="M107.94 23.5723L101.609 26.2894L97.0866 89.6901C89.8509 87.2748 81.6103 91.7028 78.3944 94.2187C87.3184 91.5619 98.594 93.1117 103.116 94.2187L107.94 23.5723Z" fill="#B60E19"/>
<path d="M110.955 37.1581L117.286 35.6486L112.161 109.918C107.303 105.435 96.4322 96.7023 89.9714 95.8034C89.607 95.7745 89.264 95.7494 88.9465 95.7282C89.2736 95.7282 89.6158 95.754 89.9714 95.8034C94.7972 96.1869 103.363 97.2526 105.83 99.0492L110.955 37.1581Z" fill="#B60E19"/>
<path d="M63.3201 39.5828C51.8074 25.3358 35.7375 20.8147 29.1417 20.335H97.4986C81.8125 21.6301 68.1771 33.7065 63.3201 39.5828Z" fill="black"/>
<path d="M63.3201 43.7206L58.1034 39.4033L54.5057 92.4699L63.3201 85.994L71.7748 92.4699L68.5368 39.4033L63.3201 43.7206Z" fill="black"/>
<path d="M32.8203 112.284V103.905H34.4316L37.2734 110.263L40.0566 103.905H41.6094V112.284H40.1738V106.448L37.9004 112.284H36.5762L34.2559 106.448V112.284H32.8203ZM43.3672 108.991V103.905H44.9199V108.991C44.9199 110.327 45.6035 110.995 46.9707 110.995C48.3379 110.995 49.0215 110.327 49.0215 108.991V103.905H50.5742V108.991C50.5742 111.226 49.373 112.343 46.9707 112.343C44.5684 112.343 43.3672 111.226 43.3672 108.991ZM52.1855 111.933V110.526C53.0254 110.839 53.9746 110.995 55.0332 110.995C56.3184 110.995 56.9609 110.565 56.9609 109.706C56.9609 109.081 56.5664 108.769 55.7773 108.769H54.4648C52.75 108.769 51.8926 107.987 51.8926 106.425C51.8926 104.706 53.1133 103.847 55.5547 103.847C56.4922 103.847 57.3809 103.983 58.2207 104.257V105.663C57.3809 105.351 56.4922 105.194 55.5547 105.194C54.1484 105.194 53.4453 105.604 53.4453 106.425C53.4453 107.05 53.7852 107.362 54.4648 107.362H55.7773C57.6016 107.362 58.5137 108.144 58.5137 109.706C58.5137 111.464 57.3535 112.343 55.0332 112.343C53.9746 112.343 53.0254 112.206 52.1855 111.933ZM59.0996 103.905H60.7695L63.125 107.942L65.3398 103.905H66.9512L63.8691 109.354V112.284H62.3164V109.354L59.0996 103.905Z" fill="#B60E19"/>
<path d="M69.0019 103.905V112.284H67.4492V103.905H69.0019ZM74.8965 103.905L71.3223 107.813L75.2715 112.284H73.1211L69.8809 108.37V107.362L72.998 103.905H74.8965ZM77.1816 108.071C77.1816 110.021 78.0469 110.995 79.7773 110.995C81.4648 110.995 82.3086 110.021 82.3086 108.071C82.3086 106.153 81.4648 105.194 79.7773 105.194C78.0469 105.194 77.1816 106.153 77.1816 108.071ZM75.5703 108.106C75.5703 105.267 76.9727 103.847 79.7773 103.847C82.5391 103.847 83.9199 105.267 83.9199 108.106C83.9199 110.931 82.5391 112.343 79.7773 112.343C77.0977 112.343 75.6953 110.931 75.5703 108.106ZM85.3906 112.284V103.905H87.0019L89.8437 110.263L92.6269 103.905H94.1797V112.284H92.7441V106.448L90.4707 112.284H89.1465L86.8262 106.448V112.284H85.3906Z" fill="black"/>
<path d="M6.37695 127.395V119.016H10.127C11.8379 119.016 12.6934 119.803 12.6934 121.377C12.6934 123.084 11.5234 124.117 9.18359 124.477L8.96094 123.094C10.3672 122.84 11.0703 122.283 11.0703 121.424C11.0703 120.729 10.7227 120.381 10.0273 120.381H7.92969V127.395H6.37695ZM15.2773 119.016V127.395H13.7246V119.016H15.2773ZM21.1719 119.016L17.5977 122.924L21.5469 127.395H19.3965L16.1562 123.48V122.473L19.2734 119.016H21.1719ZM24.7754 127.395V119.016H26.3281V122.473H30.459V119.016H32.0117V127.395H30.459V123.82H26.3281V127.395H24.7754ZM35.3281 119.016V127.395H33.7754V119.016H35.3281ZM37.0918 127.395V119.016H38.7031L41.5449 125.373L44.3281 119.016H45.8809V127.395H44.4453V121.559L42.1719 127.395H40.8477L38.5273 121.559V127.395H37.0918ZM48.5 127.395H46.9062L50.4629 119.016H52.1328L55.7656 127.395H54.0957L53.1406 125.109H50.3574L50.8906 123.762H52.5781L51.2598 120.615L48.5 127.395Z" fill="black"/>
<path d="M59.4277 127.395V119.016H63.1777C64.8887 119.016 65.7441 119.803 65.7441 121.377C65.7441 123.084 64.5742 124.117 62.2344 124.477L62.0117 123.094C63.418 122.84 64.1211 122.283 64.1211 121.424C64.1211 120.729 63.7734 120.381 63.0781 120.381H60.9805V127.395H59.4277ZM72.5117 119.016V120.352H68.3164V122.461H72.3125V123.85H68.2988V126.047H72.5938V127.395H66.7754V119.016H72.5117ZM74.0293 127.383V119.016H77.8379C79.5488 119.016 80.4043 119.764 80.4043 121.26C80.4043 122.271 79.7383 123.109 78.4062 123.773L81.0605 127.395H79.1035L76.5547 123.744V123.035C78.0391 122.781 78.7812 122.205 78.7812 121.307C78.7812 120.689 78.4336 120.381 77.7383 120.381H75.6113V127.383H74.0293ZM81.6523 127.043V125.637C82.4922 125.949 83.4414 126.105 84.5 126.105C85.7852 126.105 86.4277 125.676 86.4277 124.816C86.4277 124.191 86.0332 123.879 85.2441 123.879H83.9316C82.2168 123.879 81.3594 123.098 81.3594 121.535C81.3594 119.816 82.5801 118.957 85.0215 118.957C85.959 118.957 86.8477 119.094 87.6875 119.367V120.773C86.8477 120.461 85.959 120.305 85.0215 120.305C83.6152 120.305 82.9121 120.715 82.9121 121.535C82.9121 122.16 83.252 122.473 83.9316 122.473H85.2441C87.0684 122.473 87.9805 123.254 87.9805 124.816C87.9805 126.574 86.8203 127.453 84.5 127.453C83.4414 127.453 82.4922 127.316 81.6523 127.043ZM90.8516 119.016V127.395H89.2988V119.016H90.8516ZM92.4688 127.043V125.637C93.3086 125.949 94.2578 126.105 95.3164 126.105C96.6016 126.105 97.2441 125.676 97.2441 124.816C97.2441 124.191 96.8496 123.879 96.0605 123.879H94.748C93.0332 123.879 92.1758 123.098 92.1758 121.535C92.1758 119.816 93.3965 118.957 95.8379 118.957C96.7754 118.957 97.6641 119.094 98.5039 119.367V120.773C97.6641 120.461 96.7754 120.305 95.8379 120.305C94.4316 120.305 93.7285 120.715 93.7285 121.535C93.7285 122.16 94.0684 122.473 94.748 122.473H96.0605C97.8848 122.473 98.7969 123.254 98.7969 124.816C98.7969 126.574 97.6367 127.453 95.3164 127.453C94.2578 127.453 93.3086 127.316 92.4688 127.043ZM102.752 124.102V119.016H104.305V124.102C104.305 125.438 104.988 126.105 106.355 126.105C107.723 126.105 108.406 125.438 108.406 124.102V119.016H109.959V124.102C109.959 126.336 108.758 127.453 106.355 127.453C103.953 127.453 102.752 126.336 102.752 124.102ZM111.717 127.395V119.016H115.467C117.178 119.016 118.033 119.803 118.033 121.377C118.033 123.084 116.863 124.117 114.523 124.477L114.301 123.094C115.707 122.84 116.41 122.283 116.41 121.424C116.41 120.729 116.062 120.381 115.367 120.381H113.27V127.395H111.717ZM120.617 119.016V127.395H119.064V119.016H120.617Z" fill="#B60E19"/>
<path d="M45.2066 14.9151C43.1635 14.6484 42.2871 13.0473 42.1042 12.2801C42.1893 11.5513 42.9277 11.3106 43.2863 11.2814L43.0924 11.1167C43.0277 11.0618 42.8568 10.8832 42.69 10.608C42.4814 10.264 42.6315 9.89083 42.8108 9.87622C42.9901 9.86162 43.6821 7.27848 43.459 6.75521C43.2805 6.3366 43.575 5.96367 43.7445 5.82954C44.45 5.62767 44.4971 5.46742 44.4325 5.41252C44.1142 5.19781 43.5735 4.61619 43.957 4.0074C44.4365 3.2464 44.7805 3.0379 46.932 2.86261C48.6532 2.72239 50.1468 3.92424 50.6785 4.5427C50.8126 4.71225 51.0926 5.19479 51.1393 5.76853C51.1861 6.34227 50.2513 6.68313 49.778 6.78185L50.5536 7.44059C50.8639 7.70409 50.5217 8.52609 50.3119 8.90415L50.6559 8.69567C51.2179 8.50549 51.6267 8.79705 51.7608 8.96661C52.1194 8.9374 52.478 8.90818 53.239 9.38763C53.8478 9.77119 55.4733 10.2283 56.2099 10.409C56.8921 9.92024 57.2308 10.386 57.3149 10.6799C57.7319 11.3679 69.2611 13.3163 70.1721 13.4226C70.901 13.5076 76.7373 14.9933 79.5644 15.7256C80.8904 16.0507 81.1315 16.5003 81.0864 16.6845C81.1315 16.5003 81.2994 16.1979 81.6096 16.4614C81.9974 16.7908 83.4756 17.2118 83.4902 17.3911C83.5048 17.5704 83.4278 18.84 83.0546 18.6899C82.756 18.5699 81.3471 18.4079 80.68 18.342C80.5482 18.4971 80.1469 18.4455 79.9628 18.4004C79.5325 18.4354 64.5335 14.3632 57.0878 12.3228C57.0378 12.4472 56.8301 12.7047 56.3998 12.7398C55.862 12.7836 55.8181 12.2457 55.4303 11.9163C55.0425 11.587 52.3239 11.4475 51.8007 11.6706C51.382 11.8491 51.2287 11.2961 51.2044 10.9973C51.1592 11.1814 50.9613 11.5585 50.531 11.5936C50.1007 11.6286 49.8152 10.93 49.7262 10.5762C49.4127 12.0456 48.9758 12.4422 48.7965 12.4568C49.1301 13.0072 49.2427 13.5033 49.2573 13.6826C48.0716 15.0787 46.0628 15.0859 45.2066 14.9151Z" fill="black"/>
</svg>
